<svg
   xmlns:dc="http://purl.org/dc/elements/1.1/"
   xmlns:cc="http://creativecommons.org/ns#"
   xmlns:rdf="http://www.w3.org/1999/02/22-rdf-syntax-ns#"
   xmlns:svg="http://www.w3.org/2000/svg"
   xmlns="http://www.w3.org/2000/svg"
   xmlns:sodipodi="http://sodipodi.sourceforge.net/DTD/sodipodi-0.dtd"
   xmlns:inkscape="http://www.inkscape.org/namespaces/inkscape"
   width="500"
   height="546.66302"
   id="svg2"
   version="1.1"
   inkscape:version="0.91 r13725"
   sodipodi:docname="black-house-2015053116.svg">
  <metadata
     id="metadata634">
    <rdf:RDF>
      <cc:Work
         rdf:about="">
        <dc:format>image/svg+xml</dc:format>
        <dc:type
           rdf:resource="http://purl.org/dc/dcmitype/StillImage" />
        <dc:title></dc:title>
      </cc:Work>
    </rdf:RDF>
  </metadata>
  <defs
     id="defs632" />
  <sodipodi:namedview
     pagecolor="#ffffff"
     bordercolor="#666666"
     borderopacity="1"
     objecttolerance="10"
     gridtolerance="10"
     guidetolerance="10"
     inkscape:pageopacity="0"
     inkscape:pageshadow="2"
     inkscape:window-width="1280"
     inkscape:window-height="751"
     id="namedview630"
     showgrid="false"
     inkscape:zoom="0.19670278"
     inkscape:cx="80.588843"
     inkscape:cy="833.30745"
     inkscape:window-x="144"
     inkscape:window-y="120"
     inkscape:window-maximized="0"
     inkscape:current-layer="svg2"
     showguides="true"
     inkscape:guide-bbox="true"
     fit-margin-top="0"
     fit-margin-left="0"
     fit-margin-right="0"
     fit-margin-bottom="0" />
  <path
     style="fill:#FFFFFF;stroke:none"
     d="m 257.49533,0 c -41.07495,55.20444 -71.50641,119.93607 -113.32542,168.52018 -2.41295,-10.00158 -18.91644,-6.24886 -21.12007,-11.18849 -2.26944,-5.68684 -1.45449,-13.3403 1.02986,-18.7576 7.4741,-11.72059 3.89816,-13.51407 1.41748,-25.24867 -1.32878,-6.6862 -1.02005,-13.75818 -1.87851,-20.55124 -9.16233,1.44387 -5.53876,20.06482 -17.00753,18.60392 -3.31712,-0.91189 -11.649833,-7.14884 -13.093387,-3.7295 5.224067,5.90278 11.435307,17.55677 6.026605,25.0537 -5.183335,-15.34001 -31.134533,-22.02068 -43.890435,-7.03696 -5.653353,7.43603 -4.387514,21.75635 -3.248975,30.5241 0.380539,3.69007 4.79033,19.24403 0.183493,18.75416 -4.003382,-0.62652 -7.854133,-9.30528 -10.078364,-12.2952 -6.919081,-7.6119 -32.194208,-52.41567 -41.2573059,-46.94904 -5.3970792,8.26541 8.1637811,34.91898 11.8972369,40.12883 13.127488,17.95532 34.980106,20.91501 50.907909,35.09537 5.730274,5.10199 10.28208,11.46624 12.917924,18.69911 1.487323,4.08089 1.229363,9.17373 3.775369,12.81012 2.791639,4.42068 17.239568,9.90128 17.243778,13.29867 -22.69449,46.62625 -58.527998,85.04999 -75.95817,131.84218 12.327222,1.54024 36.023421,4.06719 58.717833,-1.76153 5.0878,61.71995 11.247195,124.06137 16.440993,180.85092 l 78.681896,0 c 2.07503,-8.68748 2.42358,-14.97493 4.37402,-27.0102 l 4.25705,-15.85381 c -0.0959,1.22615 0.63919,-19.49635 4.28686,-41.68966 -4.5487,-1.76833 -17.38199,-9.10004 -15.26664,-15.95359 0.9566,-9.4651 19.0883,-6.05636 32.85905,-3.52421 17.30595,-1.18502 18.71153,3.65431 45.06188,-12.35309 19.15435,-11.63596 36.13134,-20.56899 50.64819,-21.35004 7.16689,6.39018 15.19164,18.01536 20.01912,25.09614 5.67919,8.40194 14.8072,16.21674 18.55575,25.73608 4.85817,18.41327 -2.24986,44.25091 -13.89044,54.60757 6.63277,11.6549 6.46072,19.24007 6.45896,32.29481 l 122.72028,0 c 4.05975,-51.43329 2.79614,-102.38452 0.58718,-153.84072 L 500,396.34538 c -7.13897,-62.81822 -46.20526,-99.19216 -55.2739,-144.44587 6.51804,-37.80557 30.21857,-75.60637 30.6124,-110.97671 -23.61223,3.00205 -46.1961,-34.00259 -65.71351,-31.43583 -17.13603,20.3083 -14.31599,45.72826 -19.54753,68.96178 C 342.72488,124.02283 303.66007,43.23814 257.49533,0 Z M 92.498218,165.13129 c 4.526558,2.67225 8.780792,-0.0442 13.475282,2.57464 7.2514,7.31936 11.92865,18.58566 22.92978,20.77832 -4.36333,11.34722 -14.39527,22.69972 -21.13843,32.88198 -6.61104,-2.27179 -18.89587,-10.12178 -21.143002,-17.02817 -2.528977,-7.77306 -0.244395,-15.36293 -4.814404,-22.89995 -3.28585,-5.41849 -15.960729,-17.93927 -5.62521,-24.05826 6.271041,-2.81733 11.617001,4.83226 16.315984,7.75144 z m 44.461562,5.25479 c 5.06383,3.18604 -0.55882,9.92288 -3.94626,11.6392 -5.72387,-2.11048 -7.97626,-5.75651 -7.63331,-12.33074 3.78789,0.12257 8.34449,-1.24773 11.57957,0.69154 z M 361.4259,316.48913 c 0.49617,6.23642 1.54627,18.07777 4.68826,23.4252 3.01633,5.13429 10.69759,6.7907 14.56592,11.47521 3.71919,4.50425 3.51511,10.11385 6.25253,15.00975 3.07036,5.49188 8.91779,9.01025 11.53485,14.67946 4.81134,10.42359 -3.69202,26.42154 -10.94308,33.82468 -5.98629,6.11135 -11.65557,-2.10671 -17.36764,-2.93933 -3.63816,-0.53022 -8.45852,4.26714 -10.56003,6.74796 -6.91907,5.59434 -11.65704,25.88934 -16.96051,29.30502 -4.31289,-18.64771 -25.68983,-30.03289 -29.19836,-46.97427 2.0636,-6.92281 8.31984,-13.17762 11.78485,-18.78971 9.42949,-15.33005 17.42329,-30.9073 24.2234,-47.56144 2.42563,-5.94049 5.07107,-16.24194 11.97981,-18.20253 z m 16.03044,49.35051 c -4.4197,2.44148 -2.36235,11.64242 3.06318,8.86272 2.75545,-1.85499 3.22052,-10.24937 -3.06318,-8.86272 z M 248.61426,498.49607 c -4.07529,-1.7921 -8.46888,4.94642 -9.18752,9.25829 0.24313,5.57614 -4.93413,19.22921 -19.51082,38.90867 l 89.83829,0 c -0.24427,-5.69328 -0.58718,-11.30377 -0.58718,-17.02817 0,-5.50909 -2.59307,-7.90037 -6.45896,-7.79615 -13.88956,-2.17989 -31.35492,-8.58084 -43.11518,-16.63138 -3.00033,-2.14026 -6.97291,-6.69591 -10.97863,-6.71126 z m -32.80859,10.00038 c -10.1347,11.71185 -17.54841,22.45956 -18.78971,38.16658 l 5.95322,0 c 9.65949,-9.05376 16.0162,-29.48974 12.83649,-38.16658 z"
     id="path5310"
     inkscape:connector-curvature="0"
     sodipodi:nodetypes="ccccccccccccccccccccccccccccsccccccccccccccccccccccccccccccccccccscccccccccccccccc" />
</svg>
